<mxfile host="app.diagrams.net" modified="2023-08-28T17:18:58.236Z" agent="Mozilla/5.0 (Windows NT 10.0; Win64; x64) AppleWebKit/537.36 (KHTML, like Gecko) Chrome/116.0.0.0 Safari/537.36" etag="oNHW6hLqQtbaWg1-5LXp" version="21.6.9" type="device">
  <diagram id="prtHgNgQTEPvFCAcTncT" name="Page-1">
    <mxGraphModel dx="1434" dy="750" grid="1" gridSize="10" guides="1" tooltips="1" connect="1" arrows="1" fold="1" page="1" pageScale="1" pageWidth="827" pageHeight="1169" math="0" shadow="0">
      <root>
        <mxCell id="0" />
        <mxCell id="1" parent="0" />
        <mxCell id="FWnpfW1esmDZYMayEBbf-1" value="Пользователь&amp;nbsp;" style="shape=umlActor;verticalLabelPosition=bottom;verticalAlign=top;html=1;outlineConnect=0;" parent="1" vertex="1">
          <mxGeometry x="100" y="410" width="30" height="60" as="geometry" />
        </mxCell>
        <mxCell id="FWnpfW1esmDZYMayEBbf-3" value="" style="rounded=0;whiteSpace=wrap;html=1;" parent="1" vertex="1">
          <mxGeometry x="240" y="140" width="370" height="830" as="geometry" />
        </mxCell>
        <mxCell id="FWnpfW1esmDZYMayEBbf-4" value="Система" style="text;html=1;strokeColor=none;fillColor=none;align=center;verticalAlign=middle;whiteSpace=wrap;rounded=0;" parent="1" vertex="1">
          <mxGeometry x="363" y="150" width="60" height="30" as="geometry" />
        </mxCell>
        <mxCell id="FWnpfW1esmDZYMayEBbf-5" value="" style="ellipse;whiteSpace=wrap;html=1;" parent="1" vertex="1">
          <mxGeometry x="333" y="205" width="120" height="80" as="geometry" />
        </mxCell>
        <mxCell id="FWnpfW1esmDZYMayEBbf-6" value="Регистрация" style="text;html=1;strokeColor=none;fillColor=none;align=center;verticalAlign=middle;whiteSpace=wrap;rounded=0;" parent="1" vertex="1">
          <mxGeometry x="370" y="230" width="60" height="30" as="geometry" />
        </mxCell>
        <mxCell id="FWnpfW1esmDZYMayEBbf-7" value="" style="ellipse;whiteSpace=wrap;html=1;" parent="1" vertex="1">
          <mxGeometry x="333" y="310" width="120" height="80" as="geometry" />
        </mxCell>
        <mxCell id="FWnpfW1esmDZYMayEBbf-8" value="Вход" style="text;html=1;strokeColor=none;fillColor=none;align=center;verticalAlign=middle;whiteSpace=wrap;rounded=0;" parent="1" vertex="1">
          <mxGeometry x="363" y="340" width="60" height="30" as="geometry" />
        </mxCell>
        <mxCell id="FWnpfW1esmDZYMayEBbf-10" value="" style="ellipse;whiteSpace=wrap;html=1;" parent="1" vertex="1">
          <mxGeometry x="333" y="410" width="120" height="80" as="geometry" />
        </mxCell>
        <mxCell id="FWnpfW1esmDZYMayEBbf-11" value="Поиск" style="text;html=1;strokeColor=none;fillColor=none;align=center;verticalAlign=middle;whiteSpace=wrap;rounded=0;" parent="1" vertex="1">
          <mxGeometry x="363" y="440" width="60" height="30" as="geometry" />
        </mxCell>
        <mxCell id="FWnpfW1esmDZYMayEBbf-12" value="" style="ellipse;whiteSpace=wrap;html=1;" parent="1" vertex="1">
          <mxGeometry x="333" y="505" width="120" height="80" as="geometry" />
        </mxCell>
        <mxCell id="FWnpfW1esmDZYMayEBbf-13" value="Заказ" style="text;html=1;strokeColor=none;fillColor=none;align=center;verticalAlign=middle;whiteSpace=wrap;rounded=0;" parent="1" vertex="1">
          <mxGeometry x="363" y="530" width="60" height="30" as="geometry" />
        </mxCell>
        <mxCell id="FWnpfW1esmDZYMayEBbf-16" value="" style="ellipse;whiteSpace=wrap;html=1;" parent="1" vertex="1">
          <mxGeometry x="333" y="600" width="120" height="80" as="geometry" />
        </mxCell>
        <mxCell id="FWnpfW1esmDZYMayEBbf-17" value="Добавить продкут" style="text;html=1;strokeColor=none;fillColor=none;align=center;verticalAlign=middle;whiteSpace=wrap;rounded=0;" parent="1" vertex="1">
          <mxGeometry x="363" y="625" width="60" height="30" as="geometry" />
        </mxCell>
        <mxCell id="FWnpfW1esmDZYMayEBbf-18" value="" style="ellipse;whiteSpace=wrap;html=1;" parent="1" vertex="1">
          <mxGeometry x="333" y="700" width="120" height="80" as="geometry" />
        </mxCell>
        <mxCell id="FWnpfW1esmDZYMayEBbf-19" value="Удалить продукт" style="text;html=1;strokeColor=none;fillColor=none;align=center;verticalAlign=middle;whiteSpace=wrap;rounded=0;" parent="1" vertex="1">
          <mxGeometry x="363" y="725" width="60" height="30" as="geometry" />
        </mxCell>
        <mxCell id="FWnpfW1esmDZYMayEBbf-21" value="" style="ellipse;whiteSpace=wrap;html=1;" parent="1" vertex="1">
          <mxGeometry x="333" y="800" width="120" height="80" as="geometry" />
        </mxCell>
        <mxCell id="FWnpfW1esmDZYMayEBbf-22" value="Управление ползователями" style="text;html=1;strokeColor=none;fillColor=none;align=center;verticalAlign=middle;whiteSpace=wrap;rounded=0;" parent="1" vertex="1">
          <mxGeometry x="363" y="825" width="60" height="30" as="geometry" />
        </mxCell>
        <mxCell id="FWnpfW1esmDZYMayEBbf-23" value="Администратор&lt;br&gt;" style="shape=umlActor;verticalLabelPosition=bottom;verticalAlign=top;html=1;outlineConnect=0;" parent="1" vertex="1">
          <mxGeometry x="680" y="700" width="30" height="60" as="geometry" />
        </mxCell>
        <mxCell id="FWnpfW1esmDZYMayEBbf-31" value="" style="endArrow=classic;html=1;rounded=0;" parent="1" target="FWnpfW1esmDZYMayEBbf-5" edge="1">
          <mxGeometry width="50" height="50" relative="1" as="geometry">
            <mxPoint x="140" y="430" as="sourcePoint" />
            <mxPoint x="190" y="380" as="targetPoint" />
          </mxGeometry>
        </mxCell>
        <mxCell id="FWnpfW1esmDZYMayEBbf-32" value="" style="endArrow=classic;html=1;rounded=0;" parent="1" target="FWnpfW1esmDZYMayEBbf-8" edge="1">
          <mxGeometry width="50" height="50" relative="1" as="geometry">
            <mxPoint x="170" y="450" as="sourcePoint" />
            <mxPoint x="220" y="400" as="targetPoint" />
          </mxGeometry>
        </mxCell>
        <mxCell id="FWnpfW1esmDZYMayEBbf-33" value="" style="endArrow=classic;html=1;rounded=0;" parent="1" target="FWnpfW1esmDZYMayEBbf-11" edge="1">
          <mxGeometry width="50" height="50" relative="1" as="geometry">
            <mxPoint x="160" y="460" as="sourcePoint" />
            <mxPoint x="230" y="450" as="targetPoint" />
          </mxGeometry>
        </mxCell>
        <mxCell id="FWnpfW1esmDZYMayEBbf-35" value="" style="endArrow=classic;html=1;rounded=0;" parent="1" target="FWnpfW1esmDZYMayEBbf-13" edge="1">
          <mxGeometry width="50" height="50" relative="1" as="geometry">
            <mxPoint x="160" y="480" as="sourcePoint" />
            <mxPoint x="210" y="430" as="targetPoint" />
          </mxGeometry>
        </mxCell>
        <mxCell id="FWnpfW1esmDZYMayEBbf-37" value="" style="endArrow=classic;html=1;rounded=0;" parent="1" target="FWnpfW1esmDZYMayEBbf-17" edge="1">
          <mxGeometry width="50" height="50" relative="1" as="geometry">
            <mxPoint x="680" y="740" as="sourcePoint" />
            <mxPoint x="730" y="690" as="targetPoint" />
          </mxGeometry>
        </mxCell>
        <mxCell id="FWnpfW1esmDZYMayEBbf-38" value="" style="endArrow=classic;html=1;rounded=0;" parent="1" target="FWnpfW1esmDZYMayEBbf-19" edge="1">
          <mxGeometry width="50" height="50" relative="1" as="geometry">
            <mxPoint x="690" y="750" as="sourcePoint" />
            <mxPoint x="740" y="700" as="targetPoint" />
          </mxGeometry>
        </mxCell>
        <mxCell id="FWnpfW1esmDZYMayEBbf-41" value="" style="endArrow=classic;html=1;rounded=0;" parent="1" target="FWnpfW1esmDZYMayEBbf-22" edge="1">
          <mxGeometry width="50" height="50" relative="1" as="geometry">
            <mxPoint x="690" y="740" as="sourcePoint" />
            <mxPoint x="740" y="690" as="targetPoint" />
          </mxGeometry>
        </mxCell>
        <mxCell id="FWnpfW1esmDZYMayEBbf-43" value="" style="ellipse;whiteSpace=wrap;html=1;" parent="1" vertex="1">
          <mxGeometry x="470" y="410" width="120" height="80" as="geometry" />
        </mxCell>
        <mxCell id="FWnpfW1esmDZYMayEBbf-44" value="Применить&lt;br&gt;скидку" style="text;html=1;strokeColor=none;fillColor=none;align=center;verticalAlign=middle;whiteSpace=wrap;rounded=0;" parent="1" vertex="1">
          <mxGeometry x="500" y="435" width="60" height="30" as="geometry" />
        </mxCell>
        <mxCell id="FWnpfW1esmDZYMayEBbf-45" value="extends" style="endArrow=classic;html=1;rounded=0;entryX=1;entryY=0.5;entryDx=0;entryDy=0;" parent="1" target="FWnpfW1esmDZYMayEBbf-13" edge="1">
          <mxGeometry relative="1" as="geometry">
            <mxPoint x="520" y="470" as="sourcePoint" />
            <mxPoint x="620" y="470" as="targetPoint" />
          </mxGeometry>
        </mxCell>
        <mxCell id="Ikso2ov1wFttRM1Ovoy5-1" value="" style="endArrow=classic;html=1;rounded=0;entryX=0.617;entryY=0;entryDx=0;entryDy=0;entryPerimeter=0;" edge="1" parent="1" source="FWnpfW1esmDZYMayEBbf-6" target="FWnpfW1esmDZYMayEBbf-8">
          <mxGeometry relative="1" as="geometry">
            <mxPoint x="360" y="390" as="sourcePoint" />
            <mxPoint x="460" y="390" as="targetPoint" />
          </mxGeometry>
        </mxCell>
        <mxCell id="Ikso2ov1wFttRM1Ovoy5-2" value="Includes" style="edgeLabel;resizable=0;html=1;align=center;verticalAlign=middle;" connectable="0" vertex="1" parent="Ikso2ov1wFttRM1Ovoy5-1">
          <mxGeometry relative="1" as="geometry" />
        </mxCell>
        <mxCell id="Ikso2ov1wFttRM1Ovoy5-4" value="" style="endArrow=classic;html=1;rounded=0;entryX=0.5;entryY=0;entryDx=0;entryDy=0;" edge="1" parent="1" source="FWnpfW1esmDZYMayEBbf-11" target="FWnpfW1esmDZYMayEBbf-13">
          <mxGeometry relative="1" as="geometry">
            <mxPoint x="360" y="390" as="sourcePoint" />
            <mxPoint x="460" y="390" as="targetPoint" />
          </mxGeometry>
        </mxCell>
        <mxCell id="Ikso2ov1wFttRM1Ovoy5-5" value="Label" style="edgeLabel;resizable=0;html=1;align=center;verticalAlign=middle;" connectable="0" vertex="1" parent="Ikso2ov1wFttRM1Ovoy5-4">
          <mxGeometry relative="1" as="geometry" />
        </mxCell>
        <mxCell id="Ikso2ov1wFttRM1Ovoy5-6" value="extends" style="edgeLabel;html=1;align=center;verticalAlign=middle;resizable=0;points=[];" vertex="1" connectable="0" parent="Ikso2ov1wFttRM1Ovoy5-4">
          <mxGeometry x="0.0667" y="6" relative="1" as="geometry">
            <mxPoint as="offset" />
          </mxGeometry>
        </mxCell>
      </root>
    </mxGraphModel>
  </diagram>
</mxfile>
